<svg width="25" height="21" viewBox="0 0 25 21" fill="none" xmlns="http://www.w3.org/2000/svg">
<path d="M24.7033 3.00033C23.805 3.40866 22.8366 3.67699 21.8333 3.80533C22.86 3.18699 23.6533 2.20699 24.0266 1.02866C23.0583 1.61199 21.985 2.02033 20.8533 2.25366C19.9316 1.25033 18.6366 0.666992 17.1666 0.666992C14.425 0.666992 12.185 2.90699 12.185 5.67199C12.185 6.06866 12.2316 6.45366 12.3133 6.81533C8.15996 6.60533 4.46163 4.61033 1.99996 1.58866C1.5683 2.32366 1.3233 3.18699 1.3233 4.09699C1.3233 5.83533 2.1983 7.37533 3.55163 8.25033C2.7233 8.25033 1.9533 8.01699 1.27663 7.66699C1.27663 7.66699 1.27663 7.66699 1.27663 7.70199C1.27663 10.1287 3.0033 12.1587 5.28996 12.6137C4.86996 12.7303 4.42663 12.7887 3.97163 12.7887C3.65663 12.7887 3.34163 12.7537 3.0383 12.6953C3.6683 14.667 5.49996 16.137 7.70496 16.172C6.00163 17.5253 3.8433 18.3187 1.48663 18.3187C1.08996 18.3187 0.693298 18.2953 0.296631 18.2487C2.5133 19.672 5.14996 20.5003 7.9733 20.5003C17.1666 20.5003 22.2183 12.8703 22.2183 6.25533C22.2183 6.03366 22.2183 5.82366 22.2066 5.60199C23.1866 4.90199 24.0266 4.01533 24.7033 3.00033Z" fill="#012169"/>
</svg>
