<svg width="19" height="20" viewBox="0 0 19 20" fill="none" xmlns="http://www.w3.org/2000/svg">
<path d="M0.478431 6.86151H4.3656V19.3337H0.478431V6.86151ZM2.41162 0.666992C3.65884 0.666992 4.65661 1.66477 4.65661 2.91199C4.65661 4.15921 3.65884 5.15698 2.41162 5.15698C1.1644 5.15698 0.166626 4.15921 0.166626 2.91199C0.166626 1.66477 1.1644 0.666992 2.41162 0.666992Z" fill="#012169"/>
<path d="M6.77661 6.86161H10.4975V8.56614H10.5598C11.0795 7.58915 12.3475 6.5498 14.2183 6.5498C18.1471 6.5498 18.8746 9.12739 18.8746 12.4949V19.3338H15.0082V13.264C15.0082 11.8089 14.9875 9.95887 12.9919 9.95887C10.9756 9.95887 10.6638 11.5387 10.6638 13.1601V19.3338H6.77661V6.86161Z" fill="#012169"/>
</svg>
