<svg width="23" height="22" viewBox="0 0 23 22" fill="none" xmlns="http://www.w3.org/2000/svg">
<path d="M11.5 2.07405C14.4073 2.07405 14.7521 2.08494 15.9009 2.13757C18.8518 2.27187 20.2301 3.67199 20.3644 6.60111C20.4171 7.74898 20.427 8.09379 20.427 11.0011C20.427 13.9094 20.4162 14.2533 20.3644 15.4011C20.2292 18.3275 18.8545 19.7304 15.9009 19.8647C14.7521 19.9173 14.4091 19.9282 11.5 19.9282C8.59264 19.9282 8.24783 19.9173 7.09995 19.8647C4.14181 19.7295 2.77071 18.323 2.63642 15.4002C2.58379 14.2524 2.5729 13.9085 2.5729 11.0002C2.5729 8.09288 2.5847 7.74898 2.63642 6.6002C2.77162 3.67199 4.14634 2.27096 7.09995 2.13666C8.24873 2.08494 8.59264 2.07405 11.5 2.07405ZM11.5 0.111328C8.54273 0.111328 8.17251 0.124032 7.01103 0.176661C3.05655 0.358143 0.858806 2.55225 0.677325 6.51037C0.623788 7.67275 0.611084 8.04298 0.611084 11.0002C0.611084 13.9575 0.623788 14.3286 0.676417 15.4901C0.857899 19.4446 3.05201 21.6423 7.01012 21.8238C8.17251 21.8764 8.54273 21.8891 11.5 21.8891C14.4572 21.8891 14.8283 21.8764 15.9898 21.8238C19.9407 21.6423 22.1439 19.4482 22.3226 15.4901C22.3762 14.3286 22.3889 13.9575 22.3889 11.0002C22.3889 8.04298 22.3762 7.67275 22.3235 6.51127C22.1457 2.56042 19.9488 0.35905 15.9907 0.177569C14.8283 0.124032 14.4572 0.111328 11.5 0.111328V0.111328ZM11.5 5.40877C8.41207 5.40877 5.90853 7.91231 5.90853 11.0002C5.90853 14.0881 8.41207 16.5926 11.5 16.5926C14.5879 16.5926 17.0914 14.089 17.0914 11.0002C17.0914 7.91231 14.5879 5.40877 11.5 5.40877ZM11.5 14.6298C9.49551 14.6298 7.87034 13.0056 7.87034 11.0002C7.87034 8.99575 9.49551 7.37059 11.5 7.37059C13.5044 7.37059 15.1296 8.99575 15.1296 11.0002C15.1296 13.0056 13.5044 14.6298 11.5 14.6298ZM17.3128 3.88161C16.5905 3.88161 16.0053 4.46688 16.0053 5.18827C16.0053 5.90966 16.5905 6.49494 17.3128 6.49494C18.0342 6.49494 18.6186 5.90966 18.6186 5.18827C18.6186 4.46688 18.0342 3.88161 17.3128 3.88161Z" fill="#012169"/>
</svg>
