<svg xmlns="http://www.w3.org/2000/svg" width="78" height="18" fill="none"><g clip-path="url(#a)"><path fill="#CD040B" d="m76.265.256-4.317 9.113-1.439-3.598H68.83l2.638 5.756h1.44L78.182.256h-1.918Z"/><path fill="#000" d="M31.13 1.86h3.412v3.023h-3.413V1.861ZM3.926 17.169h3.607l3.9-11.31H8.022l-2.243 7.215-2.242-7.215H.027l3.9 11.31Zm12.675-9.165c1.17 0 2.047.877 2.145 2.242h-4.583c.293-1.364.975-2.242 2.438-2.242Zm.195 7.02c-1.56 0-2.438-.975-2.633-2.535h8.093c0-2.438-.585-4.387-1.95-5.557-.975-.878-2.243-1.365-3.803-1.365-3.412 0-5.752 2.535-5.752 5.947s2.242 5.947 5.947 5.947c1.365 0 2.535-.39 3.413-.975.975-.682 1.657-1.657 1.852-2.632H18.65c-.195.683-.877 1.17-1.852 1.17Zm6.337 2.145h3.413v-5.167c0-2.34 1.365-3.413 3.607-3.12h.098V5.956c-.195-.098-.39-.098-.683-.098-1.365 0-2.242.585-3.022 1.95h-.098V5.956h-3.315v11.212Zm7.995 0h3.413V5.858h-3.413v11.31Zm4.388 0h9.652v-2.73h-5.46v-.098l5.265-5.85V5.859h-9.36v2.73h5.265v.098l-5.265 5.947v2.535h-.097Zm15.697-2.242c-1.657 0-2.535-1.366-2.535-3.413 0-2.047.878-3.412 2.535-3.412 1.658 0 2.535 1.365 2.535 3.412 0 2.047-.877 3.412-2.535 3.412Zm.098-9.36c-3.608 0-5.948 2.535-5.948 5.947s2.438 5.947 5.948 5.947c3.607 0 5.947-2.632 5.947-5.947 0-3.412-2.437-5.947-5.947-5.947Zm6.727 11.602h3.413v-6.24c0-1.462.877-2.437 2.047-2.437 1.17 0 1.853.877 1.853 2.047v6.727h3.412V9.953c0-2.535-1.462-4.29-3.9-4.29-1.56 0-2.632.683-3.412 1.853h-.098v-1.56H58.04v11.212Z"/></g><defs><clipPath id="a"><path fill="#fff" d="M0 0h78v17.745H0z"/></clipPath></defs></svg>