<svg xmlns="http://www.w3.org/2000/svg" viewBox="0 0 100 93.75"><g data-name="Layer 2"><g data-name="Layer 1"><path d="M96.88 18.75H53.13a3.13 3.13 0 0 0 0 6.25h34.64l-19.2 14.94-13.77-8.76-3.35 5.27 15.63 9.94a3.13 3.13 0 0 0 3.59-.17l23.08-18v40.53H53.13a3.13 3.13 0 0 0 0 6.25h43.75a3.13 3.13 0 0 0 3.12-3.12v-50a3.13 3.13 0 0 0-3.12-3.13Z" style="fill:#1976d2"/><path d="M55.12.72a3.07 3.07 0 0 0-2.57-.66l-50 9.37A3.12 3.12 0 0 0 0 12.5v68.75a3.12 3.12 0 0 0 2.55 3.07l50 9.38a2.94 2.94 0 0 0 .58.06 3.13 3.13 0 0 0 3.13-3.12V3.13A3.12 3.12 0 0 0 55.12.72Z" style="fill:#2196f3"/><path d="M28.13 68.75c-8.62 0-15.63-8.41-15.63-18.75s7-18.75 15.63-18.75S43.75 39.67 43.75 50s-7.01 18.75-15.62 18.75Zm0-31.25c-5.17 0-9.37 5.61-9.37 12.5S23 62.5 28.13 62.5 37.5 56.9 37.5 50s-4.21-12.5-9.37-12.5Z" style="fill:#fafafa"/></g></g></svg>