<svg xmlns="http://www.w3.org/2000/svg" width="100" height="20" fill="none"><g clip-path="url(#a)"><path fill="#060807" d="M96.25 8.25V8h1.5v.25h-.625v1.625h-.25V8.25h-.625ZM99.75 8.25l-.625 1.625h-.25l-.5-1.625v1.625h-.25V8h.375l.5 1.5.625-1.5H100v1.875h-.25V8.25ZM70.375 5.375V14.5h5.875V13h-4V5.375h-1.875Zm7 0V7h2V5.375h-2Zm11.625 0V14.5h1.875V11l1.875 3.5H95l-2.25-3.625 2.125-2.75H92.75l-1.875 2.625V5.375H89Zm-4 2.5c-1 0-1.5.375-2 1v-.75h-1.875V14.5H83v-3.875c0-.875.5-1.5 1.125-1.5.875 0 1.125.75 1.125 1.5V14.5h1.875v-4.125c0-.25 0-.625-.125-1-.125-1-1.375-1.5-2-1.5Zm-7.625.25V14.5h1.875V8.125h-1.875ZM28.75 5.125c-2.625.25-3.5 2.625-3.5 4.75 0 2.5 1.125 4.75 3.75 4.75 1.75 0 3.375-1 3.5-2.5h-1.375c-.125 1-1 1.5-2 1.5-2 0-2.5-1.75-2.5-3.625 0-1.625.375-3.625 2.625-3.625.875 0 1.875.625 2 1.5h1.25c-.125-1.625-1.375-2.5-3.25-2.5-.125-.25-.25-.25-.5-.25Zm20.375 1.25-1.25.375v1.375H46.75V9h1.125v4c0 .875 0 .875.25 1.125s.5.375.75.375h.75c.25 0 .5 0 .875-.125V13.5c-.25.25-.5.25-.625.25-.375 0-.75-.25-.75-.625V9h1.5v-.875h-1.5v-1.75Zm-12.75 1.5c-2 0-3 1.5-3 3.375s.875 3.25 2.875 3.25c1.5 0 2.625-.75 2.75-2.125h-1.25c-.125.875-.625 1.25-1.5 1.25-1.25 0-1.625-1.125-1.625-2.25h4.5V11c.125-1.875-.875-3-2.75-3.125Zm7.25 0c-.625 0-1.5.375-1.875 1.125v-.875h-1.125V14.5h1.25V11c0-1.25.375-1.5.5-1.75.5-.5 1.125-.5 1.125-.5 1 0 1.5.625 1.5 1.625v4h1.25v-4.25C46 8 44 7.875 43.625 7.875ZM61.75 8c-.875 0-1.625.5-1.875 1.375v-1.25h-1.25V14.5h1.25v-3.125c0-1.375.25-2.125 1.75-2.25.125 0 .375 0 .5.125V8h-.375Zm-10.125.125v4.25c0 1.25.75 2.25 2.125 2.25.875 0 1.75-.375 2.125-1.125v.875H57v-6.25h-1.25v3.25c0 .125 0 .875-.25 1.5s-.875.875-1.375.875c-1.125 0-1.375-.75-1.375-1.875v-3.75h-1.125Zm11.125 0 2.625 6.375-1 2.5h1.25l3.75-8.75h-1.25l-2 5-2-5H62.75v-.125Zm-26.375.625C37.5 8.75 38 9.625 38 10.625h-3.25c0-1 .625-1.875 1.625-1.875Z"/><path fill="#8DC643" d="M10.75 0v6.625L14 1c-.875-.625-2-.875-3.25-1ZM4.125 1.75c-.875.625-1.75 1.5-2.375 2.375L7.5 7.5 4.125 1.75Zm11.5 0-3.25 5.75L18 4.25c-.625-1-1.5-1.875-2.375-2.5ZM7.5 12.375l-5.625 3.25c.625.875 1.5 1.75 2.375 2.375l3.25-5.625Zm4.875 0 3.25 5.75c.875-.625 1.75-1.5 2.375-2.375l-5.625-3.375ZM9 13.25l-3.25 5.625c1 .5 2.125.75 3.25.875v-6.5Z"/><path fill="#118745" d="M9 0C7.875.125 6.75.375 5.75.875L9 6.5V0ZM.875 5.75C.375 6.75.125 7.875 0 9h6.625L.875 5.75Zm18 0L13.25 9h6.625c-.125-1.125-.5-2.25-1-3.25ZM0 10.75C.125 11.875.375 13 .875 14L6.5 10.75H0Zm13.25 0L18.875 14c.5-1 .75-2.125.875-3.25h-6.5Zm-2.5 2.5v6.625C11.875 19.75 13 19.5 14 19l-3.25-5.75ZM16.875.25V0h1.5v.25h-.625v1.625h-.25V.25h-.625ZM20.25.125l-.5 1.75h-.25l-.625-1.75v1.75h-.25V0H19l.625 1.5.5-1.5h.375v1.875h-.25V.125Z"/></g><defs><clipPath id="a"><path fill="#fff" d="M0 0h100v19.875H0z"/></clipPath></defs></svg>