<svg xmlns="http://www.w3.org/2000/svg" viewBox="0 0 100 76.18"><defs><style>.cls-1{fill:#f2f2f2}.cls-2{fill:#f14336}.cls-3{fill:#d32e2a}</style></defs><g id="Layer_2" data-name="Layer 2"><g id="Layer_1-2" data-name="Layer 1"><path d="m94.72 12.07-6.38 64.11H11.66L6.52 13.32 50 37.66l44.72-25.59z" class="cls-1"/><path d="M92.56 0 50 39.98 7.44 0h85.12z" class="cls-1"/><path d="M11.66 18.46v57.72H4.71A4.72 4.72 0 0 1 0 71.46V10l7.62.21Z" class="cls-2"/><path d="M100 10v61.46a4.72 4.72 0 0 1-4.72 4.71h-6.94V18.46l3.85-9.09Z" class="cls-3"/><path d="M100 4.71V10l-11.66 8.5L50 46.4 11.66 18.46 0 10V4.71A4.72 4.72 0 0 1 4.71 0h2.73L50 31 92.56 0h2.73A4.72 4.72 0 0 1 100 4.71Z" class="cls-2"/><path d="M11.66 18.46 0 16.65V9.96l11.66 8.5z" class="cls-3"/></g></g></svg>