<svg xmlns="http://www.w3.org/2000/svg" xml:space="preserve" style="enable-background:new 0 0 100 100" version="1.0"
    viewBox="0 0 100 100">
    <path
        d="M19.3 89.4c18.9 14.7 45.6 13.9 63.6-1.9.1-.1.1-.2-.1-.1-3.9 2.6-15.2 8.4-32.9 8.4-15.3.1-25-3.4-30.6-6.4 0-.1 0 0 0 0M53.4 92c12.3 0 25.8-3.3 33.9-10 2.5-2.1 4.6-4.6 6.2-7.4 1.1-2 2.2-4.1 3-6.2 0-.1 0-.2-.1 0-7.5 11.1-29.3 18-51.8 18-15.9 0-33-5.1-39.7-14.8-.1-.1-.1-.1-.1.1C11.1 84.8 30 92 53.4 92M40 70C14.4 70 2.3 58.1.1 50c0-.1-.1-.1-.1 0 0 2.9.3 5.8.8 8.6.4 1.7 1.3 3.2 2.5 4.4 6.2 6.5 21.6 15.5 48.4 15.5 36.5 0 44.8-12.1 46.5-16.1 1.2-2.9 1.8-8 1.8-12.3 0-1 0-1.9-.1-2.7 0-.1-.1-.1-.1 0C98 57 66.9 70 40 70M4.8 28.5C3.2 31.8 2 35.3 1.2 38.9c-.2.8-.1 1.7.3 2.4 3.1 6.5 18.6 16.9 54.8 16.9 22.1 0 39.2-5.4 42-15.3.5-2.1.5-4.3-.1-6.3-.8-3-1.9-5.9-3.3-8.6 0-.1-.1-.1-.1 0 .4 13-35.8 21.4-54 21.4-19.8-.1-36.3-8-36.3-17.9 0-1 .2-2 .3-3 .1 0 .1-.1 0 0M83 12.6c.2.3.3.7.3 1.1 0 5.5-17 15.4-44 15.4-19.9 0-23.6-7.4-23.6-12.1.1-1.9.8-3.7 2.1-5.1.1-.1 0-.1-.1-.1-2.6 2.2-4.9 4.6-7 7.3-.8.8-1.4 1.9-1.6 3C9 31.9 33.4 39 56.2 39c24.3 0 35.1-7.9 35.1-14.9 0-2.5-1-3.9-3.4-6.8-1.5-1.6-3.1-3.2-4.9-4.7 0-.1 0 0 0 0M75.6 7c-15.9-9.5-35.7-9.4-51.5.2-2.3 1.4-3.5 2.5-3.5 3.9 0 4.2 9.9 8.7 27.3 8.7 17.3 0 30.7-5 30.7-9.7 0-1.1-1-1.9-3-3.1"
        style="fill:#00a8e0" />
</svg>