<svg xmlns="http://www.w3.org/2000/svg" width="81" height="14" fill="none"><g clip-path="url(#a)"><path fill="#999B9E" d="M60.387 1.347a1.043 1.043 0 0 1-2.086 0 1.043 1.043 0 0 1 2.086 0ZM78.896 6.035h-2.653v2.703h2.653V6.035ZM26.366 6.035h-2.653v2.703h2.653V6.035ZM18.418 6.035h-2.653v2.703h2.653V6.035ZM10.591 6.035H7.938v2.703h2.653V6.035Z"/><path fill="#ED008C" d="M6.197.638h.314c2.025 0 2.976 1.083 3.371 3.98h.628L10.429 0H.101L0 4.597h.608a6.43 6.43 0 0 1 .506-2.258A2.876 2.876 0 0 1 3.827.638h.436v9.994c0 1.012-.061 1.397-.314 1.64-.33.215-.722.311-1.114.273H2.37v.668H8.1v-.658h-.476a1.721 1.721 0 0 1-1.103-.273c-.253-.253-.314-.587-.314-1.64V.638"/><path fill="#999B9E" d="m33.525 13.224 3.341-11.675v9.164c0 1.012-.06 1.346-.283 1.59a1.448 1.448 0 0 1-1.013.273h-.132v.648h4.729v-.648h-.273a1.448 1.448 0 0 1-1.013-.274c-.223-.243-.284-.597-.284-1.59V2.897c0-1.013.061-1.377.284-1.62a1.64 1.64 0 0 1 1.013-.274h.242V.385h-3.685l-2.744 9.437L31.003.385h-3.665v.628h.344c1.013 0 1.195.212 1.195 1.518v7.422a4.87 4.87 0 0 1-.223 2.025 1.164 1.164 0 0 1-1.012.598h-.304v.648h3.898v-.648h-.243a1.236 1.236 0 0 1-1.123-.567c-.223-.375-.284-.73-.284-2.025V1.549l3.331 11.675h.587M44.217 4.05c-2.35 0-3.878 1.843-3.878 4.729 0 2.885 1.529 4.678 3.817 4.678 2.288 0 3.838-1.894 3.838-4.709 0-2.815-1.53-4.698-3.777-4.698Zm-.07.618a1.762 1.762 0 0 1 1.579 1.205c.343.932.49 1.924.435 2.916 0 2.734-.658 4.05-2.025 4.05s-2.025-1.347-2.025-4.111a7.188 7.188 0 0 1 .435-2.896 1.772 1.772 0 0 1 1.53-1.164M51.133.253l-2.684.132v.628h.152c.79 0 1.013.273 1.013 1.539v8.788a5.485 5.485 0 0 1-.193 1.924h.628c.466-.78.587-.921.78-.921a.426.426 0 0 1 .324.162 2.885 2.885 0 0 0 2.177.921c2.025 0 3.513-1.974 3.513-4.79 0-2.652-1.367-4.434-3.402-4.434a2.278 2.278 0 0 0-2.227 1.428V.253h-.081Zm2.045 4.597c1.215 0 1.843 1.296 1.843 3.837 0 2.542-.648 4.05-1.874 4.05-1.225 0-2.075-1.407-2.075-3.969a5.568 5.568 0 0 1 .567-2.865 1.883 1.883 0 0 1 1.549-1.012M60.276 4.222l-2.765.162v.598h.203c.79 0 1.013.273 1.013 1.518v4.567c0 1.245-.173 1.539-1.013 1.539h-.304v.618h4.121v-.618h-.294c-.8 0-1.012-.273-1.012-1.54V4.223M65.065.253 62.3.385v.628h.202c.79 0 1.013.273 1.013 1.539v8.545c0 1.266-.172 1.54-1.013 1.54H62.2v.617h4.121v-.618h-.303c-.8 0-1.013-.273-1.013-1.539V.253M73.854 8.738c-.092-2.865-1.448-4.688-3.514-4.688-2.065 0-3.422 2.025-3.422 4.688 0 2.896 1.417 4.759 3.614 4.759 1.418 0 2.4-.76 3.22-2.43l-.567-.294c-.668 1.377-1.296 1.965-2.308 1.965-1.499 0-2.137-1.185-2.157-4.05h5.184l-.05.05ZM68.7 8.1c0-2.025.678-3.3 1.741-3.3 1.063 0 1.681 1.204 1.66 3.3H68.7ZM79.888 3.868c.163.002.323.044.466.121.15.081.273.204.354.355a.952.952 0 0 1 0 .952.881.881 0 0 1-.354.354.952.952 0 0 1-.952 0 .891.891 0 0 1-.354-.354.952.952 0 0 1 0-.952.882.882 0 0 1 .354-.355c.143-.077.303-.119.466-.121h.02Zm0 .162a.81.81 0 0 0-.395.101.739.739 0 0 0-.293.294.79.79 0 0 0 .293 1.083.79.79 0 0 0 .79 0 .74.74 0 0 0 .294-.293.79.79 0 0 0 0-.79.73.73 0 0 0-.294-.294.81.81 0 0 0-.395-.08V4.03Zm-.415 1.316V4.334h.355a.86.86 0 0 1 .263 0c.054.018.1.053.131.1a.264.264 0 0 1 0 .153c0 .072-.03.141-.08.192a.314.314 0 0 1-.213.091l.09.05c.059.063.11.13.153.203l.121.203h-.202l-.101-.142a.852.852 0 0 0-.173-.243.213.213 0 0 0-.131 0h-.102v.436h-.162l.051-.03Zm.162-.577h.203c.062.02.13.02.192 0a.152.152 0 0 0 0-.192.152.152 0 0 0-.04-.102h-.355v.314-.02Z"/></g><defs><clipPath id="a"><path fill="#fff" d="M0 0h80.84v13.497H0z"/></clipPath></defs></svg>