<svg xmlns="http://www.w3.org/2000/svg" width="70" height="29" fill="none"><g clip-path="url(#a)"><path fill="#000" d="M64.75 20.125c-.175 0-.35-.087-.35-.35v-9.187h-3.15c-.175 0-.35-.088-.35-.35V8.925c0-.175.087-.35.35-.35h8.4c.175 0 .35.088.35.35v1.313c0 .175-.088.35-.35.35H66.5v9.275c0 .175-.088.35-.35.35l-1.4-.088ZM40.6 15.488l-1.663-4.726-1.662 4.726H40.6Zm3.675 4.287c.087.175 0 .35-.262.35h-1.488a.481.481 0 0 1-.438-.262l-.875-2.45h-4.637l-.875 2.45c-.088.175-.175.262-.438.262h-1.4c-.175 0-.35-.175-.262-.35l4.025-10.85c.087-.175.175-.263.438-.263h1.924c.175 0 .35.088.438.263l3.85 10.85Zm11.2-1.137c.962 0 1.575-.438 2.012-1.226l-2.275-2.537c-.875.525-1.487 1.05-1.487 2.012 0 .963.788 1.75 1.75 1.75Zm.612-8.488c-.787 0-1.137.438-1.137 1.137 0 .525.262.963.875 1.575 1.05-.612 1.487-.962 1.487-1.575-.087-.612-.437-1.137-1.224-1.137Zm6.388 9.625c.175.175.087.438-.175.438h-1.837c-.263 0-.35-.088-.526-.263l-1.05-1.225c-.7.962-1.75 1.75-3.412 1.75-2.1 0-3.763-1.225-3.763-3.413 0-1.662.875-2.537 2.275-3.325-.7-.787-.962-1.575-.962-2.274 0-1.75 1.225-2.975 3.15-2.975 1.925 0 3.15 1.137 3.15 2.8 0 1.4-1.05 2.274-2.1 2.887l1.575 1.75.875-1.575a.481.481 0 0 1 .438-.262h1.4c.262 0 .35.175.175.437l-1.576 2.8 2.363 2.45Zm-14.35.35c.175 0 .35-.087.35-.35v-9.187h3.15c.175 0 .35-.088.35-.35V8.925c0-.175-.087-.35-.35-.35h-8.4c-.175 0-.35.088-.35.35v1.313c0 .175.087.35.35.35h3.15v9.275c0 .175.087.35.35.35l1.4-.088Z"/><path fill="#00A8E0" d="M5.6 25.725a14.242 14.242 0 0 0 8.838 3.063c3.675 0 6.912-1.313 9.45-3.588 0 0 0-.087 0 0-1.138.788-4.376 2.45-9.45 2.45-4.463-.087-7.263-1.05-8.838-1.925-.087 0-.087 0 0 0Zm9.8.787c3.5 0 7.437-.962 9.8-2.887a7.677 7.677 0 0 0 1.75-2.188c.35-.524.613-1.137.875-1.837 0 0 0-.088 0 0-2.188 3.15-8.4 5.162-14.875 5.162-4.55 0-9.537-1.487-11.462-4.287 1.662 3.938 7.175 6.037 13.912 6.037Zm-3.938-6.387C4.113 20.125.7 16.712 0 14.35c0 .787.087 1.838.175 2.45.088.35.35.875.7 1.225 1.75 1.838 6.213 4.463 13.912 4.463 10.5 0 12.863-3.5 13.388-4.638.35-.788.525-2.275.525-3.588v-.787c-.525 2.975-9.45 6.65-17.237 6.65ZM1.4 8.225C.963 9.1.525 10.5.35 11.2c-.087.35 0 .438.088.7.875 1.838 5.337 4.9 15.75 4.9 6.387 0 11.287-1.575 12.075-4.375.174-.525.174-1.05 0-1.838-.176-.874-.613-1.837-.963-2.45.087 3.763-10.325 6.125-15.575 6.125-5.688 0-10.412-2.274-10.412-5.162 0-.35 0-.612.087-.875Zm22.487-4.637c.088.087.088.175.088.35 0 1.575-4.9 4.462-12.688 4.462-5.687 0-6.825-2.1-6.825-3.5 0-.525.176-.963.613-1.488-.7.613-1.4 1.313-2.013 2.1-.262.35-.437.7-.437.876 0 2.8 7 4.812 13.563 4.812 7 0 10.062-2.275 10.062-4.287 0-.7-.262-1.138-.962-1.926a10.583 10.583 0 0 0-1.4-1.4Zm-2.1-1.575C19.6.7 17.064 0 14.35 0S9.012.788 6.912 2.1c-.612.35-.962.7-.962 1.137 0 1.226 2.8 2.538 7.875 2.538 4.988 0 8.838-1.4 8.838-2.8-.088-.35-.35-.613-.875-.962Z"/></g><defs><clipPath id="a"><path fill="#fff" d="M0 0h70v28.788H0z"/></clipPath></defs></svg>