<svg xmlns="http://www.w3.org/2000/svg" xml:space="preserve" id="Layer_1" x="0" y="0"
    style="enable-background:new 0 0 225.6 225" version="1.0" viewBox="0 0 225.6 225">
    <style>
        .st0 {
            fill: #fff
        }
    </style>
    <circle cx="112.8" cy="112.5" r="112.5" />
    <path
        d="m55.3 80-24.7 63.6h16.7l3.7-9.8h21.7l3.9 9.8v.1h17L70.2 80H55.3zm.1 40.7 7.1-23.8 5.9 23.8h-13zM153.4 143.6v.1h15V80h-15zM138.2 100.5c-2.4-2.2-5.2-3.8-8.3-5-3.2-1.1-6.5-1.7-10.1-1.7-3.5 0-6.8.5-10 1.7-3.2 1.1-6 2.8-8.3 5-2.4 2.2-4.2 4.8-5.6 8-1.4 3.2-2.1 6.8-2.1 10.7 0 3.9.7 7.5 2.1 10.7 1.4 3.2 3.2 5.9 5.6 8.1 2.4 2.2 5.1 4 8.3 5.2 3.2 1.2 6.5 1.8 10 1.8 3.6 0 7-.6 10.1-1.8 3.2-1.2 5.9-3 8.3-5.2 2.3-2.2 4.2-4.9 5.6-8.1 1.4-3.2 2.1-6.8 2.1-10.7 0-3.9-.7-7.5-2.1-10.7-1.4-3.1-3.3-5.8-5.6-8zm-8 23.3c-.5 1.5-1.2 2.8-2.1 4-1 1.2-2.1 2.2-3.5 2.9-1.4.7-3 1.1-4.8 1.1-1.8 0-3.4-.4-4.8-1.1-1.4-.8-2.6-1.7-3.5-2.9-.9-1.2-1.6-2.5-2.1-4s-.7-3.1-.7-4.6c0-1.6.2-3.1.7-4.6s1.2-2.8 2.1-3.9c.9-1.2 2-2.1 3.4-2.8 1.4-.7 3-1.1 4.8-1.1s3.4.4 4.8 1.1c1.4.8 2.6 1.7 3.5 2.8 1 1.1 1.7 2.4 2.2 3.9s.8 3.1.8 4.6-.3 3.1-.8 4.6zM181.2 125.3c-1.2.5-2.3 1.2-3.2 2.1-1 .9-1.7 1.9-2.2 3.1-.5 1.1-.8 2.4-.8 3.7 0 1.4.3 2.7.8 3.8.6 1.1 1.3 2.1 2.2 3 .9.8 2 1.5 3.2 2s2.5.7 3.9.7c2.7 0 5.1-1 7-2.8 1.9-1.8 2.9-4.1 2.9-6.9s-.9-5.1-2.9-6.7c-2-1.9-4.3-2.8-7-2.8-1.4 0-2.7.3-3.9.8z"
        class="st0" />
</svg>