<svg height="2048px"
   style="shape-rendering:geometricPrecision; text-rendering:geometricPrecision; image-rendering:optimizeQuality; fill-rule:evenodd; clip-rule:evenodd"
   viewBox="250 325 1600 1500" width="2048px" xml:space="preserve" xmlns="http://www.w3.org/2000/svg"
   xmlns:xlink="http://www.w3.org/1999/xlink">
   <defs>
      <style type="text/css">
         .fil7 {
            fill: none;
         }

         .fil0 {
            fill: #00A3E1;
         }

         .fil4 {
            fill: #00AB58;
         }

         .fil2 {
            fill: #2264A9;
         }

         .fil5 {
            fill: #75C05B;
         }

         .fil3 {
            fill: #EC613F;
         }

         .fil1 {
            fill: #F4A85E;
         }

         .fil6 {
            fill: #FFCC35;
         }
      </style>
   </defs>
   <g id="Layer_x0020_1">
      <g id="_391042656">
         <path class="fil0"
            d="M273.819 587.735c-28.1941,16.3618 -21.4193,69.6083 9.74056,139.21 108.953,243.409 259.81,442.478 452.227,592.332 157.601,-99.443 49.4835,-156.391 70.076,-226.229 32.8075,-69.156 43.4292,-136.442 130.326,-159.502l-10.6453 -66.4961c-149.854,-136.565 -321.578,-241.019 -515.182,-292.625 -41.7827,-11.1425 -91.0359,-13.135 -136.543,13.311z"
            id="_391043472" />
         <path class="fil1"
            d="M1029.3 899.848c69.163,117.062 116.156,226.121 142.756,333.418l3.54803 19.5047 6.21497 20.4c86.889,36.3485 176.453,53.2075 269.558,42.5634 96.652,-13.3039 166.697,-53.2087 209.268,-122.372l50.5418 -117.046c-63.8457,-116.171 -170.254,-189.757 -319.226,-216.365 -126.801,-19.5189 -246.506,-6.19961 -362.661,39.8965z"
            id="_391043112" />
         <path class="fil2"
            d="M1172.06 1233.27c-26.6079,-107.297 -73.6005,-216.357 -142.763,-333.41l-7.08898 -9.75591 -36.3721 -56.7414c-16.8437,-23.0669 -28.3547,-28.1705 -43.4445,-21.5114 -15.7488,6.93544 -23.0516,18.8445 -16.852,45.4453l0 9.75591 10.6453 66.4961 2.66693 23.0599 119.712 329.87 13.3039 26.5925c39.8965,62.9634 83.341,116.164 126.786,156.069l-16.8366 -186.209 -6.21497 -30.1559 -3.54095 -19.5047z"
            id="_391042368" />
         <path class="fil3"
            d="M1029.3 899.848c116.156,-46.0961 235.86,-59.4071 362.661,-39.8965 148.98,26.6079 255.381,100.201 319.218,216.365 95.7721,-256.276 110.141,-472.627 23.0599,-641.991 -15.4264,-30.0024 -39.5126,-56.0351 -66.5044,-76.2603 -52.8095,-39.567 -115.704,-32.7685 -182.668,0 -266.439,130.396 -431.152,296.979 -487.901,492.951l25.0453 39.0839 7.08898 9.74765z"
            id="_391042488" />
         <path class="fil4"
            d="M938.855 956.605l-2.66693 -23.0599c-86.8973,23.0599 -147.195,70.0678 -180.003,139.224 -33.6957,70.0453 -39.9118,149.854 -20.4,246.507l70.0678 46.9926c70.1599,21.3579 139.623,32.9528 206.594,9.763l59.4237 -62.9634 -13.3039 -26.5925 -119.712 -329.87z"
            id="_391042248" />
         <path class="fil5"
            d="M735.786 1319.27c70.0678,180.01 172.101,317.892 320.107,389.286 21.8634,10.5378 49.5981,10.9134 72.7193,3.54095 14.9976,-4.78229 23.4272,-22.1173 30.1406,-36.3567 23.1213,-49.0075 32.8075,-117.038 39.9036,-206.601 -43.4445,-39.9118 -86.8973,-93.1052 -126.794,-156.069 -128.571,82.8886 -200.364,97.2355 -336.077,6.19961z"
            id="_391042224" />
         <path class="fil6"
            d="M1458.47 1638.49c26.439,2.85118 48.0579,-11.4945 66.4961,-26.5925 74.7816,-61.2544 131.055,-135.959 165.816,-229.669 37.9583,-102.278 43.4528,-202.172 20.3929,-305.914l-50.5252 117.046c-42.5717,69.163 -112.624,109.068 -209.276,122.372 -93.1052,10.6441 -182.669,-6.20788 -269.566,-42.5634l0.00708662 9.75591 16.8366 186.201c59.4154,62.9634 132.189,117.927 216.365,156.069 13.7953,6.24567 28.3866,11.6787 43.4528,13.2957z"
            id="_391042680" />
      </g>
   </g>
   <rect class="fil7" height="2048" width="2048" />
</svg>